<svg width="10" height="10" viewBox="0 0 10 10" fill="none" xmlns="http://www.w3.org/2000/svg">
<g clip-path="url(#clip0)">
<path d="M6.1015 3.89807C5.98305 3.77891 5.85171 3.67328 5.70991 3.58312C5.33436 3.34264 4.89776 3.21485 4.4518 3.21485C3.83283 3.2137 3.23901 3.45963 2.8021 3.89807L0.682477 6.01935C0.246305 6.45636 0.00115398 7.04846 0.000763422 7.66589C-5.67428e-05 8.95433 1.04374 9.99947 2.33218 10.0003C2.95019 10.0024 3.54347 9.75768 3.98023 9.32041L5.72991 7.57073C5.7617 7.53921 5.77945 7.49621 5.7792 7.45145C5.77867 7.35942 5.70363 7.28525 5.61159 7.28578H5.54494C5.17938 7.28707 4.81709 7.21687 4.47848 7.07916C4.41608 7.05348 4.34438 7.06797 4.29685 7.11581L3.03873 8.37558C2.64806 8.76626 2.01466 8.76626 1.62399 8.37558C1.23332 7.98491 1.23332 7.35151 1.62399 6.96084L3.75195 4.83456C4.14231 4.44469 4.77467 4.44469 5.16503 4.83456C5.42811 5.08215 5.83847 5.08215 6.10152 4.83456C6.21471 4.72128 6.28333 4.57103 6.29483 4.41129C6.30699 4.22041 6.2366 4.03347 6.1015 3.89807Z" fill="#2D9CDB"/>
<path d="M9.31592 0.683329C8.40481 -0.227776 6.92762 -0.227776 6.01651 0.683329L4.26848 2.42968C4.22048 2.47791 4.20664 2.55046 4.23349 2.61298C4.26003 2.67569 4.32205 2.71593 4.39012 2.71462H4.45177C4.8169 2.71396 5.17861 2.78471 5.51658 2.92293C5.57897 2.94861 5.65068 2.93412 5.69821 2.88627L6.95298 1.63316C7.34365 1.24249 7.97706 1.24249 8.36773 1.63316C8.7584 2.02383 8.7584 2.65723 8.36773 3.0479L6.80467 4.60928L6.79133 4.62428L6.24477 5.16752C5.85441 5.5574 5.22204 5.5574 4.83168 5.16752C4.56861 4.91993 4.15825 4.91993 3.89519 5.16752C3.78129 5.28166 3.71261 5.43322 3.70189 5.59411C3.6897 5.78499 3.7601 5.97193 3.89519 6.10736C4.08807 6.30105 4.31373 6.45901 4.56173 6.57393C4.59673 6.59059 4.63172 6.60393 4.66671 6.61892C4.70171 6.63392 4.73836 6.64558 4.77335 6.65892C4.80835 6.67225 4.845 6.68391 4.88 6.69391L4.97832 6.72057C5.04497 6.73722 5.11163 6.75056 5.17994 6.76222C5.26223 6.77444 5.34511 6.78223 5.42824 6.78555H5.54488H5.55487L5.65486 6.7739C5.69151 6.77224 5.72984 6.7639 5.77318 6.7639H5.82982L5.9448 6.74724L5.99813 6.73724L6.09478 6.71725H6.11311C6.52243 6.61443 6.8962 6.4025 7.19458 6.10402L9.31586 3.98274C10.227 3.07163 10.227 1.59444 9.31592 0.683329Z" fill="#2D9CDB"/>
</g>
<defs>
<clipPath id="clip0">
<rect width="10" height="10" fill="#fff"/>
</clipPath>
</defs>
</svg>
