<svg width="58" height="58" viewBox="0 0 58 58" fill="none" xmlns="http://www.w3.org/2000/svg">
<path d="M57 6H1C0.448 6 0 6.447 0 7V51C0 51.553 0.448 52 1 52H57C57.552 52 58 51.553 58 51V7C58 6.447 57.552 6 57 6ZM56 50H2V8H56V50Z" fill="#BDBDBD"/>
<path d="M16.0002 28.138C19.0712 28.138 21.5692 25.64 21.5692 22.57C21.5692 19.498 19.0712 17 16.0002 17C12.9292 17 10.4312 19.498 10.4312 22.569C10.4312 25.64 12.9292 28.138 16.0002 28.138ZM16.0002 19C17.9682 19 19.5692 20.602 19.5692 22.569C19.5692 24.536 17.9682 26.138 16.0002 26.138C14.0322 26.138 12.4312 24.537 12.4312 22.57C12.4312 20.603 14.0322 19 16.0002 19Z" fill="#BDBDBD"/>
<path d="M7.00004 46.0003C7.23404 46.0003 7.47004 45.9183 7.66004 45.7513L23.973 31.3893L34.275 41.6903C34.666 42.0813 35.298 42.0813 35.689 41.6903C36.08 41.2993 36.08 40.6673 35.689 40.2763L30.882 35.4693L40.063 25.4153L51.324 35.7383C51.731 36.1113 52.364 36.0833 52.737 35.6763C53.11 35.2693 53.083 34.6363 52.675 34.2633L40.675 23.2633C40.479 23.0843 40.218 22.9953 39.955 23.0013C39.69 23.0133 39.44 23.1303 39.261 23.3263L29.467 34.0533L24.724 29.3103C24.35 28.9373 23.752 28.9183 23.356 29.2663L6.33904 44.2493C5.92404 44.6143 5.88404 45.2463 6.24904 45.6613C6.44704 45.8863 6.72304 46.0003 7.00004 46.0003Z" fill="#BDBDBD"/>
</svg>
